<?xml version="1.0" encoding="UTF-8"?>
<svg id="Layer_2" xmlns="http://www.w3.org/2000/svg" viewBox="0 0 52.56 29.68">
  <defs>
    <style>
      .cls-1 {
        fill: #fff;
      }
    </style>
  </defs>
  <g id="Layer_1-2" data-name="Layer_1">
    <g>
      <path class="cls-1" d="M27.31,29.68c-1.63.03-3.2-.27-4.73-.79-2.42-.82-4.48-2.2-6.2-4.09-.86-.94-1.58-1.98-2.17-3.11-.16-.3-.3-.61-.43-.92-.07-.16-.18-.25-.35-.27-.07,0-.14-.02-.21-.03-1.53-.19-2.76-.9-3.73-2.09-.63-.77-.99-1.65-1.17-2.62-.05-.29-.04-.58-.05-.87-.04-.86.16-1.68.52-2.46.19-.42.44-.81.73-1.16.83-1.01,1.88-1.69,3.17-1.98.26-.06.52-.09.79-.12.14-.02.22-.08.28-.2.08-.18.16-.35.24-.53.86-1.8,2.05-3.36,3.54-4.69,1.66-1.49,3.57-2.55,5.72-3.17.8-.23,1.62-.38,2.45-.49.5-.07,1.01-.09,1.52-.1.59-.01,1.18.02,1.77.09.63.07,1.25.16,1.86.31,2.25.54,4.26,1.55,6.04,3.03,1.63,1.36,2.92,2.99,3.86,4.89.63,1.28,1.06,2.62,1.3,4.02,0,.01,0,.02,0,.04.12.57,0,.45.54.62.76.24,1.34.9,1.37,1.83.03.81-.44,1.56-1.29,1.88-.11.04-.23.08-.35.11-.13.03-.2.11-.22.25-.09.46-.17.93-.28,1.38-.45,1.84-1.24,3.53-2.35,5.07-1.07,1.48-2.35,2.72-3.86,3.73-1.32.88-2.75,1.52-4.28,1.93-.81.22-1.62.36-2.46.45-.52.05-1.04.05-1.56.06ZM27.62,28.71c.48,0,1.22-.05,1.96-.17,1.02-.16,2.01-.43,2.96-.81,1.45-.58,2.76-1.38,3.94-2.41.58-.5,1.11-1.04,1.6-1.63,1.17-1.43,2.04-3.02,2.58-4.79.2-.66.34-1.33.45-2.01.02-.15,0-.26-.14-.34-.05-.03-.1-.07-.15-.1-.25-.18-.45-.41-.59-.68-.22-.42-.31-.86-.19-1.33.13-.55.44-.96.9-1.27.16-.1.2-.22.17-.39-.07-.38-.12-.76-.21-1.14-.32-1.33-.81-2.58-1.49-3.76-.75-1.28-1.68-2.42-2.79-3.41-1.71-1.53-3.68-2.56-5.9-3.11-.57-.14-1.16-.24-1.75-.3-.58-.06-1.15-.13-1.73-.12-.39.01-.77.05-1.16.08-.24.02-.48.04-.72.08-1,.17-1.99.41-2.94.78-1.02.4-1.99.89-2.88,1.52-.88.62-1.69,1.32-2.42,2.13-.89,1-1.64,2.09-2.22,3.29-.04.08-.07.15-.1.23-.04.1,0,.17.11.18.35.04.68.16,1.01.28.97.35,1.78.93,2.42,1.73,1.15,1.44,1.53,3.07,1.14,4.87-.22,1.02-.71,1.9-1.43,2.65-.79.82-1.75,1.36-2.86,1.62-.08.02-.17.04-.25.06-.15.05-.18.1-.13.23.02.05.04.09.06.13.21.45.45.88.71,1.31.8,1.31,1.82,2.44,2.99,3.43,1.05.89,2.22,1.59,3.49,2.12,1.69.7,3.46,1.06,5.57,1.05ZM9.25,14.87c-.07,2.3,1.79,4.7,4.63,4.73,2.68.03,4.73-2.04,4.76-4.65.03-2.69-2.02-4.65-4.6-4.79-2.84.03-4.82,2.27-4.79,4.71ZM43.24,14.91c.01-.75-.52-1.3-1.23-1.34-.71-.04-1.33.63-1.32,1.26.01.74.54,1.31,1.25,1.32.71,0,1.28-.54,1.29-1.24Z"/>
      <path class="cls-1" d="M4.23,10.05c.52-.04,1.07.08,1.6.28.4.15.41.23.26.59-.06.16-.12.32-.18.47-.05.12-.11.14-.23.11-.15-.05-.3-.11-.44-.16-.65-.22-1.31-.25-1.96-.07-.5.14-.91.43-1.23.85-.38.5-.6,1.08-.68,1.7-.07.6-.08,1.21.05,1.8.12.56.33,1.09.7,1.53.41.49.92.8,1.57.88.69.09,1.35-.01,1.97-.32.04-.02.09-.04.13-.06.24-.11.27-.09.37.16.05.14.1.27.15.41.13.35.11.39-.24.55-.38.17-.77.29-1.18.36-.51.08-1.03.12-1.55.04-1.2-.18-2.11-.79-2.71-1.85C.22,16.6.04,15.81,0,14.99c-.02-.56,0-1.11.13-1.66.18-.77.49-1.47,1.02-2.06.71-.78,1.59-1.19,2.65-1.23.12,0,.24,0,.42,0Z"/>
      <path class="cls-1" d="M50.63,11.29c.38-.03.77.05,1.16.16.16.05.32.11.47.18.17.08.2.14.14.31-.04.13-.1.25-.16.37-.08.16-.13.17-.29.12-.09-.03-.18-.07-.27-.11-.47-.19-.96-.24-1.46-.19-.25.02-.47.1-.65.28-.31.3-.3.78.03,1.06.08.07.18.13.27.18.24.11.48.22.73.33.26.12.53.23.79.35.13.06.25.14.37.22.6.4.86.97.76,1.68-.09.68-.49,1.14-1.12,1.4-.36.15-.75.21-1.13.21-.62,0-1.23-.1-1.78-.4-.03-.02-.06-.03-.1-.05-.29-.17-.3-.21-.13-.51.07-.11.14-.23.22-.33.05-.07.12-.08.19-.04.09.05.17.1.25.15.32.19.65.31,1.02.35.37.05.73,0,1.07-.14.39-.15.57-.47.55-.89,0-.19-.08-.35-.2-.49-.12-.13-.25-.23-.4-.3-.26-.12-.53-.24-.79-.35-.31-.13-.62-.26-.92-.43-.41-.24-.69-.58-.81-1.06-.15-.58.11-1.34.71-1.69.36-.21.75-.34,1.17-.35.1,0,.19,0,.31,0Z"/>
      <path class="cls-1" d="M35.56,12.8c-.13.04-.14.12-.17.19-.39.88-.78,1.77-1.17,2.65-.05.11-.1.22-.15.33-.06.13-.17.2-.32.2-.14,0-.29,0-.43,0-.16,0-.27-.08-.34-.23-.12-.28-.25-.55-.37-.83-.32-.72-.64-1.44-.96-2.15-.02-.05-.04-.12-.1-.14-.09.04-.05.12-.05.19,0,.65,0,1.3,0,1.96,0,.71,0,1.43,0,2.14,0,.45-.03.47-.47.47-.39,0-.42-.02-.42-.41,0-1.85,0-3.7,0-5.55,0-.33.04-.37.37-.38.19,0,.39,0,.58,0,.23,0,.34.12.43.32.27.65.56,1.28.84,1.93.21.48.42.95.63,1.43.02.04.05.08.08.14.11-.07.13-.18.17-.28.46-1.05.91-2.11,1.37-3.16.01-.03.03-.07.04-.1.06-.19.18-.28.38-.27.25,0,.51,0,.76,0,.19.01.25.08.26.28,0,.1,0,.19,0,.29,0,1.73,0,3.46,0,5.18,0,.13,0,.27-.02.4,0,.09-.07.16-.17.16-.19,0-.39,0-.58,0-.1,0-.15-.07-.16-.16-.01-.13-.02-.26-.02-.4,0-1.26,0-2.51,0-3.77,0-.13,0-.26,0-.43Z"/>
      <path class="cls-1" d="M24.9,11.14c.47-.04.96.11,1.44.29.06.02.11.04.17.07.12.07.16.14.11.27-.06.16-.13.31-.21.46-.04.07-.11.1-.18.07-.14-.05-.27-.11-.41-.16-.44-.17-.89-.2-1.36-.17-.21.02-.4.07-.58.19-.45.31-.46.86-.03,1.19.27.2.59.33.91.45.37.14.74.29,1.08.5.12.08.24.17.35.26.79.65.73,2.01-.11,2.64-.32.24-.67.37-1.06.43-.42.06-.84.06-1.26,0-.45-.07-.87-.21-1.25-.46-.17-.11-.18-.18-.09-.36.02-.03.04-.06.05-.09.29-.5.26-.45.69-.2.55.33,1.15.43,1.78.28.09-.02.19-.04.28-.09.29-.14.5-.33.54-.67.04-.36-.06-.67-.38-.88-.28-.18-.57-.31-.87-.44-.29-.12-.58-.24-.86-.38-.22-.1-.42-.24-.59-.42-.26-.27-.42-.59-.42-.97,0-.24-.01-.48.08-.71.14-.33.36-.6.68-.78.37-.2.75-.33,1.17-.33.1,0,.19,0,.34,0Z"/>
    </g>
  </g>
</svg>